<svg width="221" height="212" viewBox="0 0 221 212" fill="none" xmlns="http://www.w3.org/2000/svg">
<path d="M113.739 191.255C106.173 185.956 103.485 174.984 105.472 161.309C107.455 147.666 114.077 131.495 124.891 116.051C135.706 100.606 148.636 88.8523 160.779 82.3232C172.949 75.7789 184.179 74.5516 191.746 79.8499C199.313 85.1483 202 96.1207 200.013 109.796C198.031 123.438 191.408 139.609 180.594 155.054C169.779 170.499 156.849 182.252 144.707 188.781C132.536 195.326 121.306 196.553 113.739 191.255Z" stroke="#44FFA1"/>
<path d="M92.4414 176.342C84.8746 171.043 82.1871 160.071 84.1741 146.396C86.1566 132.753 92.779 116.582 103.593 101.138C114.408 85.693 127.339 73.9393 139.481 67.4103C151.651 60.866 162.881 59.6386 170.448 64.937C178.015 70.2353 180.702 81.2078 178.715 94.8825C176.733 108.525 170.11 124.696 159.296 140.141C148.481 155.586 135.551 167.339 123.409 173.868C111.238 180.413 100.008 181.64 92.4414 176.342Z" stroke="#44FFA1"/>
<path opacity="0.75" d="M71.553 161.715C64.1025 156.498 61.5131 145.602 63.5744 131.976C65.6306 118.383 72.2996 102.244 83.1146 86.7982C93.9297 71.3527 106.815 59.5659 118.884 52.9849C130.984 46.3876 142.109 45.0938 149.559 50.3107C157.01 55.5276 159.599 66.4245 157.538 80.0506C155.482 93.6426 148.813 109.782 137.998 125.228C127.183 140.673 114.297 152.46 102.228 159.041C90.1289 165.639 79.0035 166.932 71.553 161.715Z" stroke="#44FFA1"/>
<path opacity="0.5" d="M49.8455 146.516C42.2787 141.217 39.5911 130.245 41.5782 116.57C43.5607 102.927 50.183 86.7564 60.9975 71.3117C71.812 55.867 84.7426 44.1133 96.8847 37.5843C109.055 31.04 120.285 29.8126 127.852 35.111C135.419 40.4093 138.106 51.3818 136.119 65.0566C134.137 78.6994 127.514 94.8702 116.7 110.315C105.885 125.76 92.9548 137.513 80.8127 144.042C68.6422 150.587 57.4123 151.814 49.8455 146.516Z" stroke="#44FFA1"/>
<path opacity="0.25" d="M28.138 131.316C20.6874 126.099 18.0981 115.202 20.1594 101.576C22.2156 87.984 28.8845 71.8442 39.6996 56.3987C50.5146 40.9532 63.4001 29.1664 75.4692 22.5854C87.5685 15.988 98.6938 14.6943 106.144 19.9112C113.595 25.1281 116.184 36.025 114.123 49.651C112.067 63.2431 105.398 79.3828 94.5828 94.8283C83.7677 110.274 70.8822 122.061 58.8131 128.642C46.7138 135.239 35.5885 136.533 28.138 131.316Z" stroke="#44FFA1"/>
</svg>
