<svg width="202" height="317" viewBox="0 0 202 317" fill="none" xmlns="http://www.w3.org/2000/svg">
<path d="M53.0012 290.916C40.0902 284.051 33.8042 267.394 34.2651 245.771C34.7253 224.18 41.9195 197.8 55.7623 171.766C69.605 145.731 87.4524 125.015 105.095 112.56C122.763 100.087 140.088 95.9834 152.999 102.848C165.91 109.713 172.196 126.37 171.735 147.993C171.275 169.584 164.08 195.965 150.238 221.999C136.395 248.033 118.548 268.749 100.905 281.204C83.2368 293.678 65.9123 297.781 53.0012 290.916Z" stroke="#44FFA1"/>
<path d="M17.0012 271.916C4.09023 265.051 -2.19578 248.394 -1.73494 226.771C-1.27469 205.18 5.91953 178.8 19.7623 152.766C33.605 126.731 51.4524 106.015 69.0948 93.56C86.7631 81.0867 104.088 76.9834 116.999 83.8483C129.91 90.7132 136.196 107.37 135.735 128.993C135.275 150.584 128.08 176.965 114.238 202.999C100.395 229.033 82.5475 249.749 64.9052 262.204C47.2368 274.678 29.9123 278.781 17.0012 271.916Z" stroke="#44FFA1"/>
<path opacity="0.75" d="M-17.9987 252.916C-30.6617 246.183 -36.7306 229.649 -36.1103 208.107C-35.4909 186.599 -28.1981 160.271 -14.3548 134.235C-0.511415 108.199 17.2382 87.4304 34.7221 74.8903C52.2344 62.3298 69.3358 58.1153 81.9987 64.8483C94.6616 71.5813 100.731 88.1157 100.11 109.658C99.4909 131.165 92.1981 157.494 78.3547 183.529C64.5114 209.565 46.7618 230.334 29.2778 242.874C11.7655 255.435 -5.33583 259.649 -17.9987 252.916Z" stroke="#44FFA1"/>
<path opacity="0.5" d="M-53.9988 232.916C-66.9098 226.051 -73.1958 209.394 -72.7349 187.771C-72.2747 166.18 -65.0805 139.8 -51.2377 113.766C-37.395 87.7311 -19.5476 67.0151 -1.90525 54.56C15.7631 42.0867 33.0877 37.9834 45.9987 44.8483C58.9097 51.7132 65.1957 68.3704 64.7349 89.9932C64.2746 111.584 57.0804 137.965 43.2377 163.999C29.3949 190.033 11.5475 210.749 -6.09482 223.204C-23.7632 235.678 -41.0877 239.781 -53.9988 232.916Z" stroke="#44FFA1"/>
<path opacity="0.25" d="M-90.9987 213.916C-103.662 207.183 -109.731 190.649 -109.11 169.107C-108.491 147.599 -101.198 121.271 -87.3548 95.235C-73.5114 69.1994 -55.7618 48.4304 -38.2779 35.8903C-20.7656 23.3298 -3.66421 19.1153 8.9987 25.8483C21.6616 32.5813 27.7306 49.1157 27.1103 70.6578C26.4909 92.165 19.1981 118.494 5.35473 144.529C-8.48862 170.565 -26.2382 191.334 -43.7222 203.874C-61.2345 216.435 -78.3358 220.649 -90.9987 213.916Z" stroke="#44FFA1"/>
</svg>
